<?xml version="1.0" encoding="utf-8"?>
<!-- Generator: Adobe Illustrator 27.0.1, SVG Export Plug-In . SVG Version: 6.00 Build 0)  -->
<svg version="1.1" id="Livello_1" xmlns="http://www.w3.org/2000/svg" xmlns:xlink="http://www.w3.org/1999/xlink" x="0px" y="0px"
	 viewBox="0 0 512 512" style="enable-background:new 0 0 512 512;" xml:space="preserve">
<style type="text/css">
	.st0{fill:#FFFFFF;}
</style>
<g>
	<path d="M512,1.4c0,170.2,0,340.4,0,510.6c-170.2,0-340.4,0-510.6,0c0-170,0-340.1,0-510.6C172.2,1.4,342.1,1.4,512,1.4z
		 M188.1,386.6c0.6,4.2,1.1,8.4,1.9,12.5c5.3,26.1,25.7,44.8,53,48.8c23.1,3.4,48.4-9.7,60.5-31.3c12.6-22.5,9.9-50.2-7.1-69.8
		c-2.9-3.3-3.3-6.2-2.3-10.2c23.1-86.1,46.2-172.2,69.2-258.3c3.1-11.7-0.4-15.2-12.3-12.5c-14.3,3.2-24.9,11.9-34,22.7
		c-17.1,20.4-28.9,43.8-36.1,69.1c-15.3,53.9-29.5,108.2-44,162.4c-1.3,5.1-3.6,7.5-8.6,9.3C204.4,338,188.6,361.1,188.1,386.6z
		 M257.1,198.2c-2.2,0.3-3.6,0.3-4.9,0.6c-25.1,6.8-50.2,13.7-75.4,20.2c-2.8,0.7-7.1,0-9.3-1.7c-10.6-8.5-22.2-13.6-35.9-14.9
		c-33.9-3.3-65.7,24.5-66.4,58.6c-0.6,31.9,20.1,57.5,52.3,63.2c27.8,4.9,57.6-11.6,67.1-40.9c1.3-3.9,3.6-5.5,7.2-6.4
		c14.3-3.8,28.6-7.4,42.7-11.6c2.4-0.7,5.5-3.2,6.1-5.4C246.2,239.7,251.4,219.5,257.1,198.2z M332.9,238.9c3.7-0.9,6.1-1.4,8.6-2.1
		c30.5-8.2,59.1-20.3,83.7-40.7c11.3-9.4,20-20.6,22.8-35.5c1.9-10.2-1.8-13.7-11.3-11.1c-27.1,7.3-54.3,14.6-81.4,22.2
		c-2.2,0.6-4.9,2.9-5.5,5C344,196.9,338.7,217.3,332.9,238.9z"/>
	<path class="st0" d="M512,1.4c-169.9,0-339.8,0-510.6,0c0,170.5,0,340.5,0,510.6c-0.5-2.1-1.4-4.3-1.4-6.4C0,407.1,0,308.6,0,210.1
		C0,140.2,0,70.3,0,0c3.7,0,7.3,0,11,0c164.9,0,329.8,0,494.6,0.1C507.7,0.1,509.9,0.9,512,1.4z"/>
	<path class="st0" d="M188.1,386.6c0.5-25.5,16.3-48.6,40.3-57.3c5-1.8,7.3-4.2,8.6-9.3c14.4-54.2,28.7-108.4,44-162.4
		c7.2-25.3,19-48.7,36.1-69.1c9.1-10.9,19.7-19.5,34-22.7c11.9-2.7,15.4,0.8,12.3,12.5c-23,86.1-46.1,172.2-69.2,258.3
		c-1.1,4-0.6,6.9,2.3,10.2c17.1,19.6,19.8,47.3,7.1,69.8c-12.1,21.6-37.4,34.7-60.5,31.3c-27.3-4-47.7-22.7-53-48.8
		C189.2,395,188.7,390.8,188.1,386.6z M282.5,386.9c0.1-18.5-13.9-32.7-32.5-32.8c-18.1-0.1-33,14.6-33,32.5
		c-0.1,17.7,15,32.9,32.8,33.1C267.5,420,282.4,405,282.5,386.9z M296.4,224.1c6.7,0.1,12.5-5.1,12.6-11.6
		c0.1-6.2-5.9-12.4-12.2-12.4c-6.2-0.1-11.6,5.3-11.8,11.7C284.7,219,289.3,224,296.4,224.1z"/>
	<path class="st0" d="M257.1,198.2c-5.6,21.4-10.8,41.6-16.5,61.6c-0.6,2.3-3.7,4.7-6.1,5.4c-14.2,4.1-28.5,7.8-42.7,11.6
		c-3.5,0.9-5.9,2.5-7.2,6.4c-9.5,29.3-39.3,45.7-67.1,40.9c-32.1-5.6-52.9-31.2-52.3-63.2c0.7-34.1,32.5-61.9,66.4-58.6
		c13.6,1.3,25.3,6.4,35.9,14.9c2.2,1.8,6.5,2.5,9.3,1.7c25.2-6.5,50.3-13.5,75.4-20.2C253.5,198.5,254.8,198.5,257.1,198.2z
		 M127.4,231c-18.3-0.3-33.2,13.7-33.8,31.8c-0.6,17.4,14.6,33.2,32.2,33.7c17.9,0.4,32.9-14,33.4-32.1
		C159.8,245.8,145.9,231.3,127.4,231z"/>
	<path class="st0" d="M332.9,238.9c5.8-21.6,11.1-42,16.9-62.3c0.6-2.1,3.3-4.4,5.5-5c27.1-7.6,54.2-14.8,81.4-22.2
		c9.5-2.6,13.2,0.9,11.3,11.1c-2.8,14.9-11.5,26.1-22.8,35.5c-24.6,20.4-53.2,32.5-83.7,40.7C339,237.5,336.6,238,332.9,238.9z"/>
	<path d="M282.5,386.9c-0.1,18.1-15,33.1-32.7,32.9c-17.8-0.2-32.8-15.5-32.8-33.1c0.1-18,15-32.6,33-32.5
		C268.6,354.2,282.6,368.3,282.5,386.9z"/>
	<path d="M296.4,224.1c-7.1-0.1-11.6-5.1-11.4-12.3c0.2-6.4,5.7-11.8,11.8-11.7c6.3,0.1,12.3,6.2,12.2,12.4
		C308.8,219,303.1,224.3,296.4,224.1z"/>
	<path d="M127.4,231c18.5,0.3,32.4,14.8,31.9,33.3c-0.5,18.1-15.5,32.5-33.4,32.1c-17.6-0.4-32.8-16.2-32.2-33.7
		C94.2,244.7,109.1,230.7,127.4,231z"/>
</g>
</svg>
